<svg version="1.1" viewBox="0.0 0.0 611.9685039370079 578.7900262467192" fill="none" stroke="none" stroke-linecap="square" stroke-miterlimit="10" xmlns:xlink="http://www.w3.org/1999/xlink" xmlns="http://www.w3.org/2000/svg"><clipPath id="p.0"><path d="m0 0l611.9685 0l0 578.79004l-611.9685 0l0 -578.79004z" clip-rule="nonzero"/></clipPath><g clip-path="url(#p.0)"><path fill="#000000" fill-opacity="0.0" d="m0 0l611.9685 0l0 578.79004l-611.9685 0z" fill-rule="evenodd"/><path fill="#000f46" d="m0 0l0 302.71915l302.71915 0l0 -302.71915z" fill-rule="evenodd"/><path fill="#ffffff" d="m70.35171 99.47244l-0.52493286 0.020996094l-0.8687668 0.28346252l-0.7454071 0.52493286l-0.62467194 0.7454071l-0.30446625 0.4645691l-27.020996 44.944885l7.083992 0l22.742783 -38.304466l12.249344 20.522316l-18.102364 0l-3.0656166 5.3490753l24.356953 0l7.385826 12.433075l7.4671936 0l-27.041992 -44.944885l-0.28347015 -0.4645691l-0.62467194 -0.7454071l-0.7060318 -0.52493286l-0.8687668 -0.28346252l-0.50393677 -0.020996094z" fill-rule="evenodd"/><path fill="#ffffff" d="m105.97113 100.11811l0 46.338585l6.196846 0l0 -40.162735l26.698158 0l1.1916046 0.041999817l2.1601105 0.3018341l1.433075 0.443573l0.86613464 0.3832016l0.8083954 0.4855652l0.7270355 0.56430054l0.64567566 0.62467194l0.58529663 0.7270355l0.50393677 0.8083954l0.4225769 0.88713837l0.3228302 0.98950195l0.26246643 1.0682449l0.24409485 1.7559052l0.018371582 1.3123398l-0.018371582 1.3123322l-0.22309875 1.7952728l-0.24147034 1.089241l-0.3228302 1.0314941l-0.40420532 0.9265137l-0.46455383 0.8477707l-0.5643158 0.7664032l-0.6456604 0.7086563l-0.7060394 0.58530426l-0.8083954 0.52230835l-0.8687744 0.4461975l-0.96850586 0.34120178l-1.0288696 0.26247406l-1.6745453 0.24409485l-1.2519684 0.018371582l-20.706032 0l0 5.753273l20.322838 0l12.251968 13.118118l8.797897 0l-14.086609 -14.209976l0.56430054 -0.22047424l1.1102295 -0.50393677l1.049881 -0.58529663l0.96850586 -0.64567566l0.90812683 -0.7270355l0.82676697 -0.7873993l0.76904297 -0.8687668l0.6850281 -0.92650604l0.9291382 -1.4934387l0.94750977 -2.2204742l0.6246643 -2.4619446l0.32284546 -2.6850357l0.041992188 -1.4330673l-0.020996094 -0.94750977l-0.14173889 -1.7978973l-0.280838 -1.734909l-0.40420532 -1.6141739l-0.54592896 -1.5144348l-0.68504333 -1.433075l-0.7873993 -1.291336l-0.9291229 -1.2099762l-1.049881 -1.0708618l-1.1705933 -0.96850586l-1.291336 -0.8267746l-1.3910828 -0.7060318l-1.5144348 -0.56430817l-1.6141815 -0.44356537l-1.7165222 -0.28347015l-1.8346558 -0.16272736z" fill-rule="evenodd"/><path fill="#ffffff" d="m176.54593 119.997375l0 5.7532806l26.779526 0l0 -5.7532806zm-12.170593 -19.879265l0 46.338585l40.72702 0l0 -6.1758575l-34.551178 0l0 -33.986877l34.490814 0l0 -6.17585z" fill-rule="evenodd"/><path fill="#ffffff" d="m225.6273 100.11811l-0.82940674 0.020996094l-1.5538025 0.12073517l-1.4724426 0.22309875l-1.3726959 0.3622055l-1.27034 0.44356537l-1.1706085 0.5669327l-1.0708618 0.6640396l-0.96850586 0.7480316l-0.8687744 0.8477707l-0.7454071 0.92913055l-0.6666565 1.0078735l-0.5433197 1.0708694l-0.44618225 1.1706009l-0.32284546 1.2099762l-0.22047424 1.27034l-0.12072754 1.3333359l0 0.7060394l0 0.6850357l0.12072754 1.3333359l0.24147034 1.291336l0.34384155 1.2309723l0.4645691 1.1706009l0.58529663 1.1102371l0.66404724 1.0288696l0.7690277 0.94750977l0.88713074 0.8687668l0.96850586 0.7664032l1.0708618 0.6876602l1.1496124 0.58530426l1.2519684 0.46194458l1.3097076 0.36483002l1.4147034 0.26246643l1.4934387 0.12073517l0.7847748 0.020996094l21.674545 0l0.9291229 0.018371582l1.6955414 0.22309875l1.4724426 0.44356537l1.2309723 0.68504333l1.010498 0.90813446l0.7664032 1.1102448l0.50393677 1.3516998l0.26246643 1.5747986l0.020996094 0.8897705l-0.020996094 0.7847748l-0.26246643 1.4934387l-0.50393677 1.3333282l-0.7454071 1.1706085l-0.98950195 0.96850586l-1.2519684 0.7454071l-1.4724426 0.52493286l-1.6955261 0.28346252l-0.9501343 0.020996094l-34.48819 0l0 6.1758575l35.335953 0l1.6351776 -0.14173889l1.4934387 -0.24409485l1.4120636 -0.38319397l1.2939606 -0.48294067l1.1889801 -0.5853119l1.0708618 -0.70602417l0.96850586 -0.80841064l0.8477783 -0.88713074l0.74539185 -0.96850586l0.6456909 -1.0498657l0.54592896 -1.1312408l0.4225769 -1.1889648l0.32281494 -1.2729797l0.20211792 -1.3123322l0.10235596 -1.3910675l0.018371582 -0.7060394l-0.018371582 -0.8083954l-0.10235596 -1.5328217l-0.2204895 -1.4330597l-0.34381104 -1.3333435l-0.42520142 -1.2493362l-0.56430054 -1.1312332l-0.6456909 -1.0288773l-0.76638794 -0.92913055l-0.8687744 -0.8267746l-0.96850586 -0.7270279l-1.0892334 -0.62467194l-1.1706085 -0.50393677l-1.291336 -0.42520142l-1.3937073 -0.3228302l-1.4724426 -0.20210266l-1.5931702 -0.099739075l-22.443573 0l-0.8057709 -0.041992188l-1.4934387 -0.24147034l-1.3123322 -0.48294067l-1.1286163 -0.6876602l-0.9291229 -0.9081421l-0.7060394 -1.0682373l-0.4855652 -1.2519684l-0.26246643 -1.3936996l-0.018371582 -0.7454071l0.018371582 -0.7664108l0.24409485 -1.3936996l0.48294067 -1.27034l0.6850281 -1.089241l0.9291382 -0.90813446l1.1312408 -0.70866394l1.3307037 -0.48293304l1.5354309 -0.26246643l0.8477783 -0.021003723l33.076096 0l0 -6.17585z" fill-rule="evenodd"/><path fill="#000000" fill-opacity="0.0" d="m44.742783 158.26247l0 22.21785l20.401573 -9.120743l0 16.427826l9.566933 0l-12.614174 22.522308l57.354332 0l11.7270355 -22.522308l77.31496 0l51.380585 -29.648285" fill-rule="evenodd"/><path stroke="#ffffff" stroke-width="5.044619422572178" stroke-miterlimit="76.89047" stroke-linecap="butt" d="m44.742783 158.26247l0 22.21785l20.401573 -9.120743l0 16.427826l9.566933 0l-12.614174 22.522308l57.354332 0l11.7270355 -22.522308l77.31496 0l51.380585 -29.648285" fill-rule="evenodd"/><path fill="#000f46" d="m307.7638 0l0 302.71915l302.71912 0l0 -302.71915z" fill-rule="evenodd"/><path fill="#ffffff" d="m376.90552 74.38845l-0.52493286 0.020996094l-0.8687744 0.28084564l-0.74539185 0.52493286l-0.62731934 0.7480316l-0.30181885 0.46193695l-27.02362 44.944885l7.0839844 0l22.745392 -38.325462l12.249359 20.545937l-18.102356 0l-3.0682678 5.349083l24.359589 0l7.3858337 12.430443l7.4671936 0l-27.041992 -44.944885l-0.28347778 -0.46193695l-0.6246643 -0.7480316l-0.70602417 -0.52493286l-0.8687744 -0.28084564l-0.50393677 -0.020996094z" fill-rule="evenodd"/><path fill="#ffffff" d="m412.52493 75.03412l0 46.33596l6.194214 0l0 -40.160103l26.700806 0l1.1915894 0.018371582l2.1575012 0.30445862l1.4330444 0.4645691l0.8687744 0.3832016l0.80578613 0.48294067l0.72702026 0.54592896l0.6456604 0.645668l0.58532715 0.7270355l0.5065613 0.8057785l0.4225769 0.8897629l0.32281494 0.98687744l0.2624817 1.0708618l0.24145508 1.7559052l0.041992188 1.3123398l-0.041992188 1.3097076l-0.22045898 1.7769089l-0.2441101 1.1102295l-0.32281494 1.0078735l-0.4015808 0.9501343l-0.4645691 0.8477707l-0.56692505 0.7664032l-0.6456909 0.6850357l-0.70602417 0.60630035l-0.80578613 0.5249405l-0.8687439 0.42256927l-0.96850586 0.34383392l-1.0288696 0.26246643l-1.6745605 0.24147034l-1.2519531 0.041992188l-20.706055 0l0 5.72966l20.322845 0l12.249359 13.139107l8.7795105 0l-14.086609 -14.207352l0.58529663 -0.22309113l1.1102295 -0.5249405l1.0498657 -0.56430054l0.96850586 -0.66667175l0.9081421 -0.7060318l0.8267822 -0.8057785l0.76638794 -0.84776306l0.6876831 -0.9291382l0.9265137 -1.4934387l0.9501343 -2.2388458l0.6246643 -2.461937l0.32281494 -2.6640472l0.039367676 -1.4330673l-0.018371582 -0.9501343l-0.14172363 -1.8162689l-0.28344727 -1.713913l-0.40420532 -1.6141739l-0.54330444 -1.5354309l-0.6876831 -1.4120789l-0.8057556 -1.3123322l-0.9291382 -1.1889801l-1.0288696 -1.0708618l-1.1706238 -0.96850586l-1.2913208 -0.82676697l-1.3937073 -0.7060394l-1.5118103 -0.5669327l-1.6141663 -0.44356537l-1.7165527 -0.28346252l-1.8372498 -0.16011047z" fill-rule="evenodd"/><path fill="#ffffff" d="m483.0971 94.91338l0 5.72966l26.782166 0l0 -5.72966zm-12.167969 -19.879265l0 46.33596l40.724396 0l0 -6.1968536l-34.548553 0l0 -33.96325l34.48819 0l0 -6.1758575z" fill-rule="evenodd"/><path fill="#ffffff" d="m531.3517 75.03412l-1.553772 0.12073517l-1.4724731 0.24147034l-1.3726807 0.34383392l-1.2729492 0.4645691l-1.1705933 0.56430054l-1.0682983 0.6666641l-0.96850586 0.7454071l-0.8687134 0.8477707l-0.74542236 0.9291382l-0.666687 1.010498l-0.54589844 1.0682373l-0.44360352 1.1496048l-0.32281494 1.2126007l-0.22045898 1.2913437l-0.12335205 1.3307037l0 0.68766785l0 0.6850357l0.12335205 1.3517075l0.24145508 1.291336l0.34381104 1.2309723l0.4619751 1.1706085l0.5852661 1.0918579l0.666687 1.0288696l0.76641846 0.94750977l0.8897705 0.8687668l0.96850586 0.7873993l1.0682373 0.66404724l1.1495972 0.58529663l1.2519531 0.4855652l1.3123169 0.3622055l1.4121094 0.24409485l1.4934082 0.13910675l22.461975 0l0.9291382 0.020996094l1.6954956 0.22309875l1.4724731 0.46194458l1.230957 0.6666641l1.0078735 0.90813446l0.76904297 1.1312332l0.50390625 1.3517075l0.2625122 1.5748062l0.020996094 0.8661423l-0.020996094 0.8083954l-0.2625122 1.4934387l-0.50390625 1.3307114l-0.7480469 1.1522293l-0.98950195 0.96850586l-1.2493286 0.7664032l-1.4750977 0.52493286l-1.6954956 0.26246643l-0.94750977 0.018371582l-34.48822 0l0 6.1968536l34.48822 0l0.8477783 -0.020996094l1.6351318 -0.12073517l1.4934692 -0.26246643l1.4120483 -0.3622055l1.2913208 -0.4855652l1.1916504 -0.60367584l1.0682373 -0.6876602l0.96850586 -0.8057785l0.8477173 -0.8897629l0.7480469 -0.96850586l0.6456909 -1.0498657l0.54589844 -1.1286087l0.42260742 -1.2126007l0.32281494 -1.2493439l0.2020874 -1.3333282l0.099731445 -1.3727036l0.020996094 -0.7060394l-0.020996094 -0.8057785l-0.099731445 -1.5354309l-0.2230835 -1.4514389l-0.34118652 -1.3333359l-0.42523193 -1.2309723l-0.56427 -1.1286087l-0.6456909 -1.0288696l-0.76641846 -0.9291382l-0.8687134 -0.82676697l-0.96850586 -0.7270355l-1.0892944 -0.62729645l-1.1705933 -0.52493286l-1.2913208 -0.4015808l-1.3936768 -0.3228302l-1.4724731 -0.20210266l-1.5957642 -0.10236359l-0.8267822 -0.018371582l-21.614197 0l-0.80578613 -0.020996094l-1.4934082 -0.24147034l-1.3123169 -0.4855652l-1.1312866 -0.7060318l-0.9265137 -0.88713837l-0.70861816 -1.089241l-0.4829712 -1.2335968l-0.26245117 -1.3910751l-0.020996094 -0.7664032l0.020996094 -0.7480316l0.24145508 -1.4120789l0.4855957 -1.2519684l0.68499756 -1.0892334l0.9291382 -0.9081421l1.1286011 -0.7060318l1.333374 -0.4855652l1.5327759 -0.26246643l0.8477783 -0.018371582l33.078735 0l0 -6.1758575z" fill-rule="evenodd"/><path fill="#000000" fill-opacity="0.0" d="m352.50656 184.33595l0 22.220474l20.40158 -9.123352l0 16.448822l9.566925 0l-12.614166 22.522308l57.35431 0l11.727051 -22.522308l77.31494 0l51.380615 -29.666672" fill-rule="evenodd"/><path stroke="#ffffff" stroke-width="5.044619422572178" stroke-miterlimit="76.89047" stroke-linecap="butt" d="m352.50656 184.33595l0 22.220474l20.40158 -9.123352l0 16.448822l9.566925 0l-12.614166 22.522308l57.35431 0l11.727051 -22.522308l77.31494 0l51.380615 -29.666672" fill-rule="evenodd"/><path fill="#ffffff" d="m349.76117 139.51181l0 24.178482l3.2283325 0l0 -20.968506l13.944885 0l0.6062927 0.020996094l1.1312256 0.16011047l0.98687744 0.3228302l0.82940674 0.50393677l0.6850281 0.66667175l0.52493286 0.84776306l0.34384155 1.010498l0.18109131 1.2099762l0.018371582 0.68504333l-0.018371582 0.6876526l-0.16271973 1.2309723l-0.34121704 1.0498657l-0.4855652 0.9081421l-0.6666565 0.7060394l-0.8477783 0.54330444l-0.98687744 0.36483765l-1.1522217 0.18109131l-0.6456604 0.020996094l-10.816284 0l0 2.9868774l10.614166 0l6.37796 6.860901l4.582672 -0.020996094l-7.3464355 -7.40683l0.6036682 -0.24147034l1.0918579 -0.6062927l0.94750977 -0.7454071l0.78741455 -0.887146l0.6456604 -1.0498657l0.50393677 -1.1496124l0.32281494 -1.2939606l0.18112183 -1.3910675l0 -0.7480316l-0.018371582 -0.96850586l-0.28347778 -1.7952728l-0.56430054 -1.5931854l-0.8477783 -1.3726959l-1.0892334 -1.1102448l-1.3543091 -0.86875916l-1.5722046 -0.6036835l-1.7978821 -0.30445862l-0.96850586 -0.020996094z" fill-rule="evenodd"/><path fill="#ffffff" d="m396.29922 142.72179l0.9081116 0.039367676l1.6955566 0.3228302l1.5118103 0.64567566l1.333313 0.9107666l1.11026 1.1679688l0.8661194 1.3937073l0.60632324 1.5931702l0.30181885 1.7559052l0.041992188 0.9501343l-0.041992188 0.94750977l-0.30181885 1.7978973l-0.60632324 1.6141663l-0.8661194 1.433075l-1.1312561 1.1889801l-1.3123169 0.9501343l-1.5328064 0.6456604l-1.6955566 0.34121704l-0.8871155 0.041992188l-5.7926636 0l-0.9081421 -0.041992188l-1.6535339 -0.34121704l-1.5144348 -0.6456604l-1.3333435 -0.9291382l-1.0892334 -1.1916046l-0.8661499 -1.4330597l-0.6062927 -1.6141815l-0.32284546 -1.7952728l-0.020996094 -0.96850586l0.020996094 -0.9501343l0.32284546 -1.7952728l0.6062927 -1.5931702l0.8661499 -1.3937073l1.1102295 -1.1496124l1.3333435 -0.90812683l1.4934387 -0.6273041l1.67453 -0.3228302l0.887146 -0.039367676zm-6.417328 -3.2099762l-1.212616 0.10235596l-1.1495972 0.22309875l-1.0892334 0.32284546l-1.0498657 0.42256165l-0.98950195 0.52493286l-0.9081421 0.606308l-0.8477783 0.68504333l-0.76638794 0.7873993l-0.7060547 0.86875916l-0.6062927 0.9265137l-0.50393677 1.010498l-0.4225769 1.0892334l-0.32281494 1.1286163l-0.22311401 1.2126007l-0.12072754 1.27034l0 0.6456604l0 0.66667175l0.12072754 1.27034l0.22311401 1.2126007l0.32281494 1.1889801l0.4225769 1.1102295l0.50393677 1.0498657l0.6062927 0.96850586l0.7060547 0.9081421l0.76638794 0.82676697l0.8477783 0.7480316l0.9081421 0.66667175l0.98950195 0.54330444l1.0288696 0.4645691l1.1102295 0.3438263l1.1495972 0.24147034l1.212616 0.1207428l0.6246643 0.020996094l5.7926636 0l0.6246643 -0.020996094l1.2125854 -0.1207428l1.1706238 -0.24147034l1.107605 -0.3438263l1.0498657 -0.4645691l0.98950195 -0.54330444l0.9291382 -0.66667175l0.8477478 -0.7480316l0.76641846 -0.82676697l0.70602417 -0.9081421l0.58532715 -0.96850586l0.52493286 -1.0498657l0.4225464 -1.1102295l0.32284546 -1.1889801l0.22311401 -1.2126007l0.099731445 -1.27034l0.020996094 -0.66667175l-0.020996094 -0.6456604l-0.099731445 -1.27034l-0.22311401 -1.2126007l-0.32284546 -1.1286163l-0.4015503 -1.0892334l-0.5065613 -1.010498l-0.60369873 -0.9265137l-0.6876526 -0.86875916l-0.76638794 -0.7873993l-0.8477783 -0.68504333l-0.9081421 -0.606308l-0.98950195 -0.52493286l-1.0682373 -0.42256165l-1.1102295 -0.32284546l-1.1916199 -0.22309875l-1.230957 -0.10235596z" fill-rule="evenodd"/><path fill="#ffffff" d="m421.90814 139.51181l-1.2099915 0.10235596l-1.1495972 0.22309875l-1.1102295 0.32284546l-1.0288696 0.42256165l-0.98950195 0.52493286l-0.9291382 0.606308l-0.8267822 0.68504333l-0.78738403 0.7873993l-0.6850586 0.86875916l-0.6062927 0.9265137l-0.50393677 1.010498l-0.42520142 1.0892334l-0.32281494 1.1286163l-0.2204895 1.2126007l-0.12335205 1.27034l0 0.6456604l0 0.66667175l0.12335205 1.27034l0.2204895 1.2126007l0.32281494 1.1889801l0.42520142 1.1102295l0.50393677 1.0498657l0.6062927 0.96850586l0.6850586 0.9081421l0.78738403 0.82676697l0.8267822 0.7480316l0.9291382 0.66667175l0.98950195 0.54330444l1.0288696 0.4645691l1.1102295 0.3438263l1.1495972 0.24147034l1.2099915 0.1207428l0.6272888 0.020996094l12.855652 0l0 -3.2283478l-12.855652 0l-0.9081421 -0.041992188l-1.6561584 -0.34121704l-1.5144348 -0.6456604l-1.330719 -0.9291382l-1.0892334 -1.1916046l-0.8897705 -1.4330597l-0.58529663 -1.6141815l-0.32284546 -1.7952728l-0.018371582 -0.96850586l0.018371582 -0.9501343l0.32284546 -1.7952728l0.6062927 -1.5931702l0.8687744 -1.3937073l1.1102295 -1.1496124l1.330719 -0.90812683l1.4934387 -0.6273041l1.67453 -0.3228302l0.8897705 -0.039367676l12.855652 0l0 -3.2099762z" fill-rule="evenodd"/><path fill="#ffffff" d="m439.16272 139.51181l0 24.178482l3.2309875 0l0 -24.178482zm19.737549 0l-14.48819 10.233597l-0.2441101 0.18110657l-0.32281494 0.3228302l-0.18112183 0.36219788l-0.08135986 0.40420532l0 0.22309875l0.020996094 0.4225769l0.22311401 0.52493286l0.25982666 0.30445862l0.18374634 0.16011047l15.073486 11.039368l5.2886963 0l-17.154846 -12.472443l16.65091 -11.706039z" fill-rule="evenodd"/><path fill="#ffffff" d="m474.03674 149.88715l0 2.9868622l13.965881 0l0 -2.9868622zm-6.356964 -10.375336l0 24.178482l21.251984 0l0 -3.2283478l-18.02362 0l0 -17.740158l18.002625 0l0 -3.2099762z" fill-rule="evenodd"/><path fill="#ffffff" d="m491.47244 139.51181l0 3.2099762l9.467194 0l0 20.968506l3.2283325 0l0 -20.968506l9.485596 0l0 -3.2099762z" fill-rule="evenodd"/><path fill="#ffffff" d="m516.77954 139.51181l0 24.178482l3.230957 0l0 -20.968506l13.923889 0l0.6246948 0.020996094l1.1102295 0.16011047l0.98950195 0.3228302l0.8477783 0.50393677l0.666626 0.66667175l0.5249634 0.84776306l0.36218262 1.010498l0.18109131 1.2099762l0.020996094 0.68504333l-0.020996094 0.6876526l-0.18109131 1.2309723l-0.32281494 1.0498657l-0.5039673 0.9081421l-0.666626 0.7060394l-0.8267822 0.54330444l-1.010498 0.36483765l-1.1495972 0.18109131l-0.6456909 0.020996094l-10.816284 0l0 2.9868774l10.614197 0l6.3779297 6.860901l4.601074 -0.020996094l-7.3464966 -7.40683l0.58532715 -0.24147034l1.0892334 -0.6062927l0.9501343 -0.7454071l0.80578613 -0.887146l0.6456299 -1.0498657l0.4855957 -1.1496124l0.34381104 -1.2939606l0.16009521 -1.3910675l0.020996094 -0.7480316l-0.020996094 -0.96850586l-0.30181885 -1.7952728l-0.56427 -1.5931854l-0.8477783 -1.3726959l-1.0918579 -1.1102448l-1.3307495 -0.86875916l-1.5747681 -0.6036835l-1.7952881 -0.30445862l-0.98950195 -0.020996094z" fill-rule="evenodd"/><path fill="#ffffff" d="m542.65356 139.51181l13.057739 14.551178l0 9.627304l3.2283325 0l0 -9.627304l13.097107 -14.551178l-4.118103 0l-10.472473 11.62468l-10.433044 -11.62468z" fill-rule="evenodd"/><path fill="#000f46" d="m72.249344 403.62466l-0.52493286 0.020996094l-0.8687668 0.28347778l-0.7454071 0.52230835l-0.62729645 0.74801636l-0.30184174 0.4645691l-27.023617 44.94226l7.083988 0l22.745407 -38.30182l12.249344 20.522308l-18.102364 0l-3.0682411 5.34906l24.359577 0l7.385826 12.43045l7.4671936 0l-27.041992 -44.94226l-0.28346252 -0.4645691l-0.62467194 -0.74801636l-0.7060394 -0.52230835l-0.8687668 -0.28347778l-0.50393677 -0.020996094z" fill-rule="evenodd"/><path fill="#000f46" d="m107.86877 404.27036l0 46.335938l6.1968536 0l0 -40.160095l26.698158 0l1.1916046 0.041992188l2.1574707 0.30184937l1.433075 0.44354248l0.8687744 0.38320923l0.8083954 0.4855652l0.724411 0.56430054l0.6456604 0.6246948l0.5853119 0.72702026l0.5065613 0.80841064l0.42256165 0.8871155l0.32284546 0.98950195l0.26246643 1.0682678l0.24147034 1.7558899l0.020996094 1.3123474l-0.020996094 1.3123169l-0.22047424 1.7952881l-0.24147034 1.0892334l-0.3228302 1.0288696l-0.40420532 0.9291382l-0.4645691 0.8477783l-0.56430054 0.76638794l-0.64567566 0.7060547l-0.70866394 0.58529663l-0.8057709 0.52493286l-0.86875916 0.443573l-0.96850586 0.34381104l-1.0288696 0.2624817l-1.6745453 0.24145508l-1.2519684 0.020996094l-20.70604 0l0 5.7506714l20.322845 0l12.249344 13.118103l8.800522 0l-14.086624 -14.207336l0.5643158 -0.2204895l1.1102295 -0.5065613l1.0498657 -0.58529663l0.96850586 -0.6456604l0.9081421 -0.72442627l0.82676697 -0.78738403l0.7664032 -0.8687744l0.68766785 -0.9291382l0.9265137 -1.4934387l0.950119 -2.2178345l0.62467957 -2.4619446l0.3228302 -2.685028l0.041992188 -1.433075l-0.020996094 -0.94750977l-0.14172363 -1.7979126l-0.28346252 -1.7348938l-0.4015808 -1.6141968l-0.54592896 -1.5144348l-0.68504333 -1.4330444l-0.7873993 -1.2913513l-0.9291382 -1.2099609l-1.0498657 -1.0708923l-1.1706085 -0.96847534l-1.291336 -0.8267822l-1.3910675 -0.7060547l-1.5144348 -0.56430054l-1.6141815 -0.4461975l-1.7165375 -0.28082275l-1.837265 -0.16271973z" fill-rule="evenodd"/><path fill="#000f46" d="m178.44357 424.1496l0 5.7506714l26.779526 0l0 -5.7506714zm-12.1706085 -19.879242l0 46.335938l40.727036 0l0 -6.173218l-34.551178 0l0 -33.986877l34.48819 0l0 -6.1758423z" fill-rule="evenodd"/><path fill="#000f46" d="m227.52231 404.27036l-0.82676697 0.020996094l-1.5538025 0.12072754l-1.4724426 0.2230835l-1.3727112 0.36221313l-1.2729645 0.443573l-1.1706085 0.56692505l-1.0682373 0.664032l-0.96850586 0.7480469l-0.86875916 0.8477783l-0.7454071 0.92648315l-0.66667175 1.010498l-0.54592896 1.0682678l-0.443573 1.1705933l-0.3228302 1.2125854l-0.22047424 1.2703552l-0.12072754 1.3333435l0 0.70602417l0 0.6850281l0.12072754 1.3333435l0.24147034 1.2913513l0.3438263 1.230957l0.46194458 1.1705933l0.5853119 1.11026l0.6666565 1.0288696l0.7664032 0.94750977l0.8897705 0.8687439l0.96850586 0.76641846l1.0682373 0.6850281l1.1522369 0.58529663l1.2493439 0.4645691l1.3123322 0.36483765l1.4120636 0.2624817l1.4934387 0.12072754l0.78741455 0.018371582l21.67453 0l0.9291382 0.020996094l1.6955414 0.2230835l1.4724426 0.443573l1.2309723 0.6850586l1.010498 0.9081116l0.76638794 1.11026l0.50393677 1.3516846l0.2624817 1.5747986l0.020996094 0.887146l-0.020996094 0.78741455l-0.2624817 1.4934387l-0.50393677 1.333313l-0.74801636 1.1706238l-0.98687744 0.96850586l-1.2519684 0.74539185l-1.4750671 0.52493286l-1.6929169 0.28347778l-0.9501343 0.020996094l-34.48819 0l0 6.173218l35.335968 0l1.6351624 -0.13909912l1.4934387 -0.2441101l1.4120789 -0.3831787l1.291336 -0.48294067l1.1916046 -0.58529663l1.0682373 -0.7060547l0.9711304 -0.8083801l0.8451538 -0.887146l0.74801636 -0.96850586l0.6456604 -1.0498657l0.5459595 -1.1312561l0.4225464 -1.1889648l0.32284546 -1.2729492l0.2020874 -1.3123474l0.09976196 -1.3910828l0.020996094 -0.70602417l-0.020996094 -0.80841064l-0.09976196 -1.5328064l-0.2230835 -1.433075l-0.34121704 -1.3333435l-0.42520142 -1.2493286l-0.56430054 -1.1312256l-0.6456604 -1.0288696l-0.76638794 -0.9291382l-0.8687744 -0.8267822l-0.96850586 -0.72702026l-1.0892334 -0.6246948l-1.1706085 -0.50393677l-1.2913513 -0.4251709l-1.393692 -0.32284546l-1.4724426 -0.2020874l-1.5957947 -0.09976196l-22.440948 0l-0.8057709 -0.041992188l-1.4934387 -0.24145508l-1.3123474 -0.48294067l-1.1312256 -0.6876831l-0.9265137 -0.9081116l-0.7060394 -1.0682678l-0.4855652 -1.2519531l-0.26246643 -1.3937073l-0.020996094 -0.74539185l0.020996094 -0.76641846l0.24147034 -1.3937073l0.4855652 -1.2703247l0.68504333 -1.0918579l0.9291382 -0.9081421l1.1312256 -0.7060547l1.330719 -0.48294067l1.5328064 -0.26245117l0.84776306 -0.020996094l33.078735 0l0 -6.1758423z" fill-rule="evenodd"/><path fill="#000000" fill-opacity="0.0" d="m46.637794 462.41208l0 22.220459l20.404198 -9.120728l0 16.427826l9.566933 0l-12.614174 22.522278l57.354332 0l11.727028 -22.522278l77.31235 0l51.38321 -29.648285" fill-rule="evenodd"/><path stroke="#231f20" stroke-width="5.044619422572178" stroke-miterlimit="76.89047" stroke-linecap="butt" d="m46.637794 462.41208l0 22.220459l20.404198 -9.120728l0 16.427826l9.566933 0l-12.614174 22.522278l57.354332 0l11.727028 -22.522278l77.31235 0l51.38321 -29.648285" fill-rule="evenodd"/><path fill="#000f46" d="m376.74277 385.48294l-0.50393677 0.039367676l-0.8687439 0.2624817l-0.74542236 0.52493286l-0.6456604 0.76638794l-0.28347778 0.4645691l-27.02362 44.92389l7.065613 0l22.763794 -38.304474l12.2283325 20.524933l-18.102356 0l-3.0472412 5.367462l24.338593 0l7.40683 12.412079l7.4461975 0l-27.020996 -44.92389l-0.28347778 -0.4645691l-0.6246643 -0.76638794l-0.7270508 -0.52493286l-0.8477478 -0.2624817l-0.5249634 -0.039367676z" fill-rule="evenodd"/><path fill="#000f46" d="m412.3832 386.1286l0 46.335968l6.1758423 0l0 -40.141724l26.719177 0l1.1915894 0.020996094l2.1600952 0.30181885l1.4304504 0.4461975l0.8687744 0.4015808l0.8083801 0.4645691l0.72442627 0.56430054l0.6482849 0.6272888l0.5826721 0.7270508l0.5065613 0.8057556l0.4015808 0.9081421l0.34384155 0.96850586l0.26245117 1.0708618l0.2414856 1.774292l0.020996094 1.2939453l-0.020996094 1.3097229l-0.2204895 1.7979126l-0.24145508 1.0892334l-0.32284546 1.0288696l-0.4041748 0.9291382l-0.4855652 0.8661194l-0.54333496 0.76904297l-0.6456604 0.6850281l-0.72702026 0.60632324l-0.78741455 0.50393677l-0.887146 0.44354248l-0.9501343 0.34384155l-1.0288696 0.2624817l-1.6955261 0.24145508l-1.230957 0.039367676l-20.724426 0l0 5.7323l20.341217 0l12.249329 13.118103l-0.018371582 0.020996094l8.797913 0l-14.086609 -14.2283325l0.58529663 -0.22311401l1.1102295 -0.50393677l1.0288696 -0.58529663l0.98950195 -0.6456604l0.887146 -0.7270508l0.8477783 -0.78738403l0.76638794 -0.8661499l0.6876526 -0.9081421l0.9265137 -1.5144348l0.9291382 -2.220459l0.6456604 -2.4619446l0.32284546 -2.6850586l0.041992188 -1.4304504l-0.020996094 -0.92910767l-0.14172363 -1.8162842l-0.28347778 -1.7165527l-0.4015503 -1.6351624l-0.5459595 -1.5118103l-0.6850281 -1.4120789l-0.80841064 -1.3123169l-0.92910767 -1.1916199l-1.0472717 -1.0892334l-1.1522217 -0.9501343l-1.2913208 -0.8451233l-1.3910828 -0.6876831l-1.5144348 -0.58529663l-1.6141663 -0.4225769l-1.7165527 -0.30444336l-1.8346558 -0.13912964l-0.95010376 -0.020996094z" fill-rule="evenodd"/><path fill="#000f46" d="m482.958 406.02625l0 5.7323l26.758514 0l0 -5.7323zm-12.191589 -19.897644l0 46.335968l40.748016 0l0 -6.1758423l-34.551178 0l0 -33.96588l34.46982 0l0 -6.1942444z" fill-rule="evenodd"/><path fill="#000f46" d="m532.03674 386.1286l-0.8267822 0.020996094l-1.5747681 0.12075806l-1.451477 0.24145508l-1.3726807 0.34384155l-1.2729492 0.46194458l-1.1680298 0.56692505l-1.0708618 0.6456604l-0.96850586 0.76641846l-0.8687744 0.8267517l-0.7663574 0.9291382l-0.6456909 1.0078735l-0.54589844 1.0918579l-0.44360352 1.1496277l-0.32281494 1.2099609l-0.22045898 1.2729797l-0.120788574 1.3516846l0 0.6850586l0 0.6876526l0.120788574 1.330719l0.24145508 1.2913208l0.34381104 1.2309875l0.4645996 1.1705933l0.56427 1.1102295l0.6850586 1.0288696l0.76641846 0.9501343l0.8897095 0.8661499l0.96850586 0.76641846l1.0498657 0.6876526l1.1706543 0.58529663l1.230957 0.48294067l1.3306885 0.36483765l1.4121094 0.24145508l1.4934082 0.12072754l0.76904297 0.021026611l21.67456 0l0.94750977 0.020996094l1.6954956 0.22045898l1.451477 0.443573l1.2519531 0.6876526l1.010498 0.9081421l0.74542236 1.1286011l0.52490234 1.3333435l0.26245117 1.5747986l0.020996094 0.887146l-0.020996094 0.78741455l-0.26245117 1.4934082l-0.50390625 1.3517151l-0.7480469 1.1495972l-1.0078735 0.96850586l-1.230957 0.7480469l-1.4724731 0.52493286l-1.7164917 0.28085327l-0.94750977 0.020996094l-34.490845 0l0 6.1758423l0.020996094 0.020996094l34.46985 0l0.86608887 -0.020996094l1.6141968 -0.12072754l1.5144653 -0.2624817l1.4120483 -0.38320923l1.2913208 -0.4855652l1.1705933 -0.58529663l1.091919 -0.70602417l0.96850586 -0.78741455l0.8477173 -0.887146l0.74542236 -0.98947144l0.6456909 -1.0498962l0.52490234 -1.1286011l0.44360352 -1.1915894l0.30181885 -1.2703552l0.2230835 -1.3123169l0.10235596 -1.3727112l0.018371582 -0.7060547l-0.018371582 -0.8267517l-0.10235596 -1.5354309l-0.2230835 -1.433075l-0.34118652 -1.330719l-0.44360352 -1.230957l-0.54589844 -1.1312561l-0.666687 -1.0498657l-0.74542236 -0.92648315l-0.8687744 -0.82940674l-0.98950195 -0.72442627l-1.0682373 -0.6062927l-1.1915894 -0.52493286l-1.2703247 -0.4225769l-1.3937378 -0.30444336l-1.4934082 -0.2204895l-1.5722046 -0.10235596l-22.443542 0l-0.8267822 -0.018371582l-1.4724121 -0.2624817l-1.3123779 -0.46453857l-1.1312256 -0.7060547l-0.9265137 -0.8897705l-0.70599365 -1.0892334l-0.5065918 -1.2519531l-0.24145508 -1.3910828l-0.020996094 -0.7480469l0.020996094 -0.76638794l0.24145508 -1.3910828l0.4645996 -1.2519531l0.70599365 -1.0892639l0.9291382 -0.9081116l1.1312256 -0.7060547l1.3307495 -0.5065613l1.5327759 -0.24145508l0.8477783 -0.020996094l33.078735 0l0 -6.1942444z" fill-rule="evenodd"/><path fill="#000000" fill-opacity="0.0" d="m352.36484 495.44882l0 22.22049l20.383179 -9.120758l0 16.427826l9.585327 0l-12.632568 22.522278l57.375336 0l11.724426 -22.522278l77.293945 0l51.40155 -29.648285" fill-rule="evenodd"/><path stroke="#231f20" stroke-width="5.044619422572178" stroke-miterlimit="76.89047" stroke-linecap="butt" d="m352.36484 495.44882l0 22.22049l20.383179 -9.120758l0 16.427826l9.585327 0l-12.632568 22.522278l57.375336 0l11.724426 -22.522278l77.293945 0l51.40155 -29.648285" fill-rule="evenodd"/><path fill="#000f46" d="m349.61942 450.6063l0 24.178497l3.228363 0l0 -20.94751l13.926514 0l0.6246643 0.018371582l1.1312256 0.16271973l0.96850586 0.32284546l0.8477783 0.48294067l0.6850281 0.6666565l0.50393677 0.8477783l0.36483765 1.0288696l0.18109131 1.2125854l0.020996094 0.6850586l-0.020996094 0.6850281l-0.16271973 1.2125854l-0.34121704 1.0682373l-0.50393677 0.8897705l-0.6666565 0.72442627l-0.8267822 0.54592896l-0.98950195 0.36221313l-1.1705933 0.18371582l-11.443573 0l0 3.005249l10.595795 0l6.396332 6.8425293l4.582672 0l-7.346466 -7.40683l0.60632324 -0.2414856l1.0682373 -0.6062927l0.94750977 -0.74539185l0.8083801 -0.9081421l0.6456909 -1.0314941l0.4855652 -1.1496277l0.34118652 -1.2913208l0.16275024 -1.3937073l0.020996094 -0.74539185l-0.020996094 -0.98950195l-0.30184937 -1.7952881l-0.56692505 -1.5747986l-0.8267822 -1.3727112l-1.1102295 -1.1286011l-1.330719 -0.8687744l-1.5747986 -0.58529663l-1.7952576 -0.30184937l-0.98950195 -0.041992188z" fill-rule="evenodd"/><path fill="#000f46" d="m396.13647 453.83728l0.9081421 0.018371582l1.6955261 0.34381104l1.5354614 0.6246948l1.3306885 0.9081116l1.1102295 1.1706238l0.8687744 1.3937073l0.6036682 1.5931702l0.30447388 1.776886l0.039367676 0.94750977l-0.039367676 0.9501343l-0.30447388 1.774292l-0.6036682 1.6351624l-0.8897705 1.4120789l-1.1102295 1.1915894l-1.3306885 0.94750977l-1.5144653 0.6666565l-1.6955261 0.34384155l-0.9081421 0.020996094l-5.771637 0l-0.9081421 -0.020996094l-1.67453 -0.34384155l-1.4934387 -0.6456604l-1.330719 -0.9291382l-1.1102295 -1.2099609l-0.8687744 -1.4120789l-0.6062927 -1.6141663l-0.30184937 -1.7979126l-0.020996094 -0.96850586l0.020996094 -0.96850586l0.32284546 -1.7742615l0.6062927 -1.5957947l0.8661499 -1.3910828l1.1102295 -1.1706238l1.3123474 -0.88974l1.5144348 -0.6456909l1.67453 -0.32281494l0.887146 -0.018371582zm-5.771637 -3.2309875l-0.6246948 0.020996094l-1.2099609 0.10235596l-1.1522217 0.2204895l-1.1102295 0.32284546l-1.0289001 0.4251709l-0.98950195 0.50393677l-0.92648315 0.60369873l-0.8477783 0.7086487l-0.76641846 0.78479004l-0.6876526 0.8477478l-0.6036682 0.9501343l-0.5065613 1.0078735l-0.4225769 1.0708618l-0.32284546 1.1496277l-0.2230835 1.2099609l-0.12072754 1.2519836l0 0.6666565l0 0.6456604l0.12072754 1.2703552l0.2230835 1.230957l0.32284546 1.1706238l0.4225769 1.1102295l0.5065613 1.0498657l0.6036682 0.98950195l0.6876526 0.9081421l0.76641846 0.8267517l0.8477783 0.7480469l0.92648315 0.6456604l0.98950195 0.56430054l1.0289001 0.443573l1.1102295 0.36221313l1.1522217 0.24407959l1.2099609 0.12075806l7.023651 0l1.230957 -0.12075806l1.1705933 -0.24407959l1.11026 -0.36221313l1.0472412 -0.443573l0.98950195 -0.56430054l0.92910767 -0.6456604l0.8477783 -0.7480469l0.76641846 -0.8267517l0.6850281 -0.9081421l0.6062927 -0.98950195l0.52493286 -1.0498657l0.4225769 -1.1102295l0.32546997 -1.1706238l0.19946289 -1.230957l0.12335205 -1.2703552l0 -0.6456604l0 -0.6666565l-0.12335205 -1.2519836l-0.19946289 -1.2099609l-0.32546997 -1.1496277l-0.4015808 -1.0708618l-0.52493286 -1.0078735l-0.58529663 -0.9501343l-0.6876526 -0.8477478l-0.76641846 -0.78479004l-0.8477478 -0.7086487l-0.9265137 -0.60369873l-0.98950195 -0.50393677l-1.0498657 -0.4251709l-1.1312561 -0.32284546l-1.1705933 -0.2204895l-1.230957 -0.10235596l-0.6456909 -0.020996094z" fill-rule="evenodd"/><path fill="#000f46" d="m422.3727 450.6063l-0.6062927 0.020996094l-1.2099915 0.10235596l-1.1495972 0.2204895l-1.1102295 0.32284546l-1.0498962 0.4251709l-0.96847534 0.50393677l-0.9291382 0.60369873l-0.8477783 0.7086487l-0.76641846 0.78479004l-0.6850281 0.8477478l-0.6062927 0.9501343l-0.52493286 1.0078735l-0.40420532 1.0708618l-0.32284546 1.1496277l-0.22045898 1.2099609l-0.12072754 1.2519836l0 0.6666565l0 0.6456604l0.12072754 1.2703552l0.22045898 1.230957l0.32284546 1.1706238l0.40420532 1.1102295l0.52493286 1.0498657l0.6062927 0.98950195l0.6850281 0.9081421l0.76641846 0.8267517l0.8477783 0.7480469l0.9291382 0.6456604l0.96847534 0.56430054l1.0498962 0.443573l1.1102295 0.36221313l1.1495972 0.24407959l1.2099915 0.12075806l13.48291 0l0 -3.228363l-12.876617 0l-0.887146 -0.020996094l-1.67453 -0.34384155l-1.4934387 -0.6456604l-1.3333435 -0.9291382l-1.1102295 -1.2099609l-0.8661499 -1.4120789l-0.6062927 -1.6141663l-0.30184937 -1.7979126l-0.041992188 -0.96850586l0.041992188 -0.96850586l0.30184937 -1.7742615l0.6246643 -1.5957947l0.8687744 -1.3910828l1.1102295 -1.1706238l1.3123474 -0.88974l1.5118103 -0.6456909l1.6561584 -0.32281494l0.887146 -0.018371582l12.876617 0l0 -3.2309875z" fill-rule="evenodd"/><path fill="#000f46" d="m439.00262 450.6063l0 24.178497l3.2283325 0l0 -24.178497zm19.75592 0l-14.48819 10.251984l-0.2441101 0.16271973l-0.32284546 0.34384155l-0.18109131 0.36218262l-0.08135986 0.40420532l0 0.2204895l0.020996094 0.42520142l0.2020874 0.50393677l0.28347778 0.32281494l0.18109131 0.14172363l15.076111 11.039398l5.2861023 0l-17.173218 -12.472443l16.669281 -11.706055z" fill-rule="evenodd"/><path fill="#000f46" d="m473.89502 460.98163l0 3.005249l13.965881 0l0 -3.005249zm-6.356964 -10.375336l0 24.178497l21.251984 0l0 -3.228363l-18.02362 0l0 -17.719147l17.981598 0l0 -3.2309875z" fill-rule="evenodd"/><path fill="#000f46" d="m491.31235 450.6063l0 3.2309875l9.485565 0l0 20.94751l3.2283325 0l0 -20.94751l9.464539 0l0 -3.2309875z" fill-rule="evenodd"/><path fill="#000f46" d="m516.61945 450.6063l0 24.178497l3.2283325 0l0 -20.94751l13.944885 0l0.6062622 0.018371582l1.1312866 0.16271973l0.98687744 0.32284546l0.8293457 0.48294067l0.6850586 0.6666565l0.5249634 0.8477783l0.34381104 1.0288696l0.18109131 1.2125854l0.020996094 0.6850586l-0.020996094 0.6850281l-0.16271973 1.2125854l-0.34118652 1.0682373l-0.4855957 0.8897705l-0.666687 0.72442627l-0.8477173 0.54592896l-0.98687744 0.36221313l-1.1522827 0.18371582l-11.461914 0l0 3.005249l10.614197 0l6.3779297 6.8425293l4.5827026 0l-7.3464966 -7.40683l0.60369873 -0.2414856l1.0918579 -0.6062927l0.94750977 -0.74539185l0.78741455 -0.9081421l0.6456299 -1.0314941l0.5039673 -1.1496277l0.32281494 -1.2913208l0.18109131 -1.3937073l0 -0.74539185l-0.018371582 -0.98950195l-0.28344727 -1.7952881l-0.56433105 -1.5747986l-0.8477173 -1.3727112l-1.0892944 -1.1286011l-1.3543091 -0.8687744l-1.5721436 -0.58529663l-1.7979126 -0.30184937l-0.96850586 -0.041992188z" fill-rule="evenodd"/><path fill="#000f46" d="m542.4908 450.6063l13.078796 14.572174l0 9.606323l3.2283325 0l0 -9.606323l13.097107 -14.572174l-4.1364746 0l-10.454102 11.645691l-10.454041 -11.645691z" fill-rule="evenodd"/></g></svg>