<svg version="1.1" viewBox="0.0 0.0 1143.4829396325458 574.1417322834645" fill="none" stroke="none" stroke-linecap="square" stroke-miterlimit="10" xmlns:xlink="http://www.w3.org/1999/xlink" xmlns="http://www.w3.org/2000/svg"><clipPath id="p.0"><path d="m0 0l1143.4829 0l0 574.1417l-1143.4829 0l0 -574.1417z" clip-rule="nonzero"/></clipPath><g clip-path="url(#p.0)"><path fill="#ffffff" d="m0 0l1143.4829 0l0 574.1417l-1143.4829 0z" fill-rule="evenodd"/><path fill="#000f46" d="m0 0l191.27559 0l0 574.1417l-191.27559 0z" fill-rule="evenodd"/><path fill="#ffffff" d="m23.819088 10.858268l70.48819 127.40157l-10.897636 6.0787354l-70.48819 -127.401566z" fill-rule="evenodd"/><path fill="#ffffff" d="m94.30708 138.14183l-0.6614151 195.74803l-12.472443 0l0.6614227 -195.74803z" fill-rule="evenodd"/><path fill="#ffffff" d="m87.08156 322.89764l63.149612 34.64566l-5.952759 10.960632l-63.149612 -34.64566z" fill-rule="evenodd"/><path fill="#ffffff" d="m150.07349 357.60104l-0.50393677 149.19687l-12.472443 0l0.50393677 -149.19687z" fill-rule="evenodd"/><path fill="#ffffff" d="m99.94187 471.16003l49.480324 28.409454l-6.173233 10.86615l-49.480316 -28.409454z" fill-rule="evenodd"/><path fill="#ffffff" d="m95.19423 469.61417l-0.09449005 32.188995l-12.566933 0l0.09449005 -32.188995z" fill-rule="evenodd"/><path fill="#ffffff" d="m47.868767 489.1916l47.244095 0.12600708l0 12.472443l-47.244095 -0.12600708z" fill-rule="evenodd"/><path fill="#ffffff" d="m19.12336 538.6772l55.46457 0.1574707l0 12.472412l-55.46457 -0.1574707z" fill-rule="evenodd"/><path fill="#ffffff" d="m56.010494 489.6089l22.488186 57.07086l-11.622047 4.629944l-22.488186 -57.070892z" fill-rule="evenodd"/><path fill="#ffffff" d="m82.53281 479.98688l0 -19.685028l32.755905 19.685028z" fill-rule="evenodd"/><path fill="#ffffff" d="m149.60104 499.7349l-25.007866 0l25.007866 14.771698z" fill-rule="evenodd"/><path fill="#ffffff" d="m60.535435 489.20157l0 45.984283l-19.086617 -45.95279z" fill-rule="evenodd"/><path fill="#ffffff" d="m74.51705 536.698l6.299217 14.708679l-39.370083 -0.4724121z" fill-rule="evenodd"/><path fill="#000b34" d="m386.3281 0l191.2756 0l0 574.7402l-191.2756 0z" fill-rule="evenodd"/><path fill="#abc1a7" d="m761.79266 0l191.27557 0l0 574.7402l-191.27557 0z" fill-rule="evenodd"/><path fill="#ffffff" d="m415.33615 9.977691l70.48819 127.40158l-10.897644 6.0787354l-70.48819 -127.40158z" fill-rule="evenodd"/><path fill="#ffffff" d="m485.82416 137.26125l-0.661438 195.74803l-12.472443 0l0.661438 -195.74803z" fill-rule="evenodd"/><path fill="#ffffff" d="m478.59863 322.01706l63.149597 34.64566l-5.952759 10.960632l-63.149597 -34.64566z" fill-rule="evenodd"/><path fill="#ffffff" d="m541.5906 356.72046l-0.5039673 149.19687l-12.472412 0l0.50390625 -149.19687z" fill-rule="evenodd"/><path fill="#ffffff" d="m491.45892 470.27948l49.480347 28.409424l-6.173279 10.86615l-49.480286 -28.409454z" fill-rule="evenodd"/><path fill="#ffffff" d="m486.71127 468.73358l-0.09448242 32.188995l-12.566925 0l0.09448242 -32.188995z" fill-rule="evenodd"/><path fill="#ffffff" d="m439.38583 488.31104l47.24408 0.12597656l0 12.472443l-47.24408 -0.12597656z" fill-rule="evenodd"/><path fill="#ffffff" d="m410.6404 537.7966l55.46457 0.1574707l0 12.472473l-55.46457 -0.1574707z" fill-rule="evenodd"/><path fill="#ffffff" d="m447.52756 488.7283l22.48819 57.070892l-11.62204 4.629883l-22.48819 -57.07086z" fill-rule="evenodd"/><path fill="#ffffff" d="m474.04987 479.1063l0 -19.685028l32.75592 19.685028z" fill-rule="evenodd"/><path fill="#ffffff" d="m541.1181 498.85434l-25.007874 0l25.007874 14.771637z" fill-rule="evenodd"/><path fill="#ffffff" d="m452.0525 488.32098l0 45.984253l-19.086609 -45.95276z" fill-rule="evenodd"/><path fill="#ffffff" d="m466.03412 535.81744l6.2991943 14.708679l-39.370056 -0.47247314z" fill-rule="evenodd"/><path fill="#ffffff" d="m799.6734 9.977691l70.48822 127.40158l-10.897644 6.0787354l-70.48822 -127.40158z" fill-rule="evenodd"/><path fill="#ffffff" d="m870.16144 137.26125l-0.661438 195.74803l-12.472412 0l0.66137695 -195.74803z" fill-rule="evenodd"/><path fill="#ffffff" d="m862.9359 322.01706l63.149597 34.64566l-5.952759 10.960632l-63.149597 -34.64566z" fill-rule="evenodd"/><path fill="#ffffff" d="m925.9278 356.72046l-0.50390625 149.19687l-12.472473 0l0.5039673 -149.19687z" fill-rule="evenodd"/><path fill="#ffffff" d="m875.7962 470.27948l49.480347 28.409424l-6.173279 10.86615l-49.480286 -28.409454z" fill-rule="evenodd"/><path fill="#ffffff" d="m871.0486 468.73358l-0.09454346 32.188995l-12.566895 0l0.09448242 -32.188995z" fill-rule="evenodd"/><path fill="#ffffff" d="m823.7231 488.31104l47.24408 0.12597656l0 12.472443l-47.24408 -0.12597656z" fill-rule="evenodd"/><path fill="#ffffff" d="m794.97766 537.7966l55.4646 0.1574707l0 12.472473l-55.4646 -0.1574707z" fill-rule="evenodd"/><path fill="#ffffff" d="m831.8648 488.7283l22.48822 57.070892l-11.62207 4.629883l-22.48816 -57.07086z" fill-rule="evenodd"/><path fill="#ffffff" d="m858.38715 479.1063l0 -19.685028l32.75592 19.685028z" fill-rule="evenodd"/><path fill="#ffffff" d="m925.4554 498.85434l-25.007874 0l25.007874 14.771637z" fill-rule="evenodd"/><path fill="#ffffff" d="m836.3898 488.32098l0 45.984253l-19.086609 -45.95276z" fill-rule="evenodd"/><path fill="#ffffff" d="m850.3714 535.81744l6.2991943 14.708679l-39.370056 -0.47247314z" fill-rule="evenodd"/><path fill="#ffffff" d="m953.06824 0l191.27563 0l0 574.7402l-191.27563 0z" fill-rule="evenodd"/><path fill="#000f46" d="m229.99231 9.678477l70.48819 127.40157l-10.897644 6.0787506l-70.488174 -127.40158z" fill-rule="evenodd"/><path fill="#000f46" d="m300.48032 136.96204l-0.6614075 195.74802l-12.472443 0l0.6614075 -195.74802z" fill-rule="evenodd"/><path fill="#000f46" d="m293.2548 321.71783l63.149597 34.64569l-5.952759 10.960602l-63.149597 -34.64566z" fill-rule="evenodd"/><path fill="#000f46" d="m356.2467 356.42126l-0.50393677 149.19684l-12.472412 0l0.50393677 -149.19684z" fill-rule="evenodd"/><path fill="#000f46" d="m306.1151 469.98026l49.480316 28.409454l-6.1732483 10.866119l-49.480316 -28.409424z" fill-rule="evenodd"/><path fill="#000f46" d="m301.36746 468.4344l-0.09448242 32.188965l-12.566956 0l0.09451294 -32.188965z" fill-rule="evenodd"/><path fill="#000f46" d="m254.04199 488.0118l47.24411 0.12597656l0 12.472443l-47.24411 -0.12597656z" fill-rule="evenodd"/><path fill="#000f46" d="m225.29659 537.4974l55.464584 0.1574707l0 12.472473l-55.464584 -0.15753174z" fill-rule="evenodd"/><path fill="#000f46" d="m262.18372 488.4291l22.48819 57.07083l-11.62204 4.629944l-22.48819 -57.07086z" fill-rule="evenodd"/><path fill="#000f46" d="m288.70602 478.8071l0 -19.685059l32.75592 19.685059z" fill-rule="evenodd"/><path fill="#000f46" d="m355.7743 498.5551l-25.007874 0l25.007874 14.7716675z" fill-rule="evenodd"/><path fill="#000f46" d="m266.70865 488.0218l0 45.984253l-19.086609 -45.95276z" fill-rule="evenodd"/><path fill="#000f46" d="m280.69028 535.51825l6.299225 14.708618l-39.370087 -0.4724121z" fill-rule="evenodd"/><path fill="#000b34" d="m611.94116 9.678477l70.48816 127.40157l-10.897644 6.0787506l-70.48816 -127.40158z" fill-rule="evenodd"/><path fill="#000b34" d="m682.42914 136.96204l-0.661438 195.74802l-12.472412 0l0.66137695 -195.74802z" fill-rule="evenodd"/><path fill="#000b34" d="m675.2036 321.71783l63.149597 34.64569l-5.952759 10.960602l-63.149597 -34.64566z" fill-rule="evenodd"/><path fill="#000b34" d="m738.19556 356.42126l-0.5039673 149.19684l-12.472412 0l0.50390625 -149.19684z" fill-rule="evenodd"/><path fill="#000b34" d="m688.0639 469.98026l49.480347 28.409454l-6.173218 10.866119l-49.480347 -28.409424z" fill-rule="evenodd"/><path fill="#000b34" d="m683.3163 468.4344l-0.09448242 32.188965l-12.566956 0l0.09448242 -32.188965z" fill-rule="evenodd"/><path fill="#000b34" d="m635.9908 488.0118l47.24414 0.12597656l0 12.472443l-47.24414 -0.12597656z" fill-rule="evenodd"/><path fill="#000b34" d="m607.2454 537.4974l55.46454 0.1574707l0 12.472473l-55.46454 -0.15753174z" fill-rule="evenodd"/><path fill="#000b34" d="m644.13257 488.4291l22.48816 57.07083l-11.62207 4.629944l-22.48816 -57.07086z" fill-rule="evenodd"/><path fill="#000b34" d="m670.65485 478.8071l0 -19.685059l32.75592 19.685059z" fill-rule="evenodd"/><path fill="#000b34" d="m737.7231 498.5551l-25.007874 0l25.007874 14.7716675z" fill-rule="evenodd"/><path fill="#000b34" d="m648.6575 488.0218l0 45.984253l-19.086609 -45.95276z" fill-rule="evenodd"/><path fill="#000b34" d="m662.6391 535.51825l6.2991943 14.708618l-39.370056 -0.4724121z" fill-rule="evenodd"/><path fill="#abc1a7" d="m990.94904 10.858268l70.48822 127.40157l-10.897705 6.0787354l-70.48816 -127.401566z" fill-rule="evenodd"/><path fill="#abc1a7" d="m1061.437 138.14183l-0.66137695 195.74803l-12.472534 0l0.661499 -195.74803z" fill-rule="evenodd"/><path fill="#abc1a7" d="m1054.2114 322.89764l63.14966 34.64566l-5.952759 10.960632l-63.14966 -34.64566z" fill-rule="evenodd"/><path fill="#abc1a7" d="m1117.2034 357.60104l-0.50390625 149.19687l-12.472412 0l0.50390625 -149.19687z" fill-rule="evenodd"/><path fill="#abc1a7" d="m1067.0718 471.16003l49.480347 28.409454l-6.173218 10.86615l-49.480347 -28.409454z" fill-rule="evenodd"/><path fill="#abc1a7" d="m1062.3241 469.61417l-0.09448242 32.188995l-12.566895 0l0.09448242 -32.188995z" fill-rule="evenodd"/><path fill="#abc1a7" d="m1014.99866 489.1916l47.24414 0.12600708l0 12.472443l-47.24414 -0.12600708z" fill-rule="evenodd"/><path fill="#abc1a7" d="m986.2533 538.6772l55.4646 0.1574707l0 12.472412l-55.4646 -0.1574707z" fill-rule="evenodd"/><path fill="#abc1a7" d="m1023.14044 489.6089l22.48822 57.07086l-11.62207 4.629944l-22.48822 -57.070892z" fill-rule="evenodd"/><path fill="#abc1a7" d="m1049.6627 479.98688l0 -19.685028l32.75586 19.685028z" fill-rule="evenodd"/><path fill="#abc1a7" d="m1116.731 499.7349l-25.007812 0l25.007812 14.771698z" fill-rule="evenodd"/><path fill="#abc1a7" d="m1027.6654 489.20157l0 45.984283l-19.08667 -45.95279z" fill-rule="evenodd"/><path fill="#abc1a7" d="m1041.647 536.698l6.2991943 14.708679l-39.370056 -0.4724121z" fill-rule="evenodd"/></g></svg>